<svg width="225" height="233" viewBox="0 0 225 233" fill="none" xmlns="http://www.w3.org/2000/svg">
<circle cx="112.5" cy="113.5" r="108.5" fill="#89817C"/>
<path d="M41.6618 58.438H44.4358V58.78L43.2578 59.084H43.2198L34.4798 85.038H33.6818L24.5998 59.084H24.5618L23.6878 58.78V58.438H26.8418V58.78L26.0438 59.084H26.0058L34.5178 83.48L42.7638 59.084L41.6618 58.78V58.438ZM60.3786 82.188L60.6446 82.34L59.9226 85H46.6226V84.658L47.4966 84.316V59.046L46.6226 58.742V58.4H49.7386V58.742L48.8266 59.046V84.43C51.3599 84.6327 53.1712 84.7213 54.2606 84.696C56.5152 84.62 57.9592 84.468 58.5926 84.24C59.2259 83.9867 59.8212 83.3027 60.3786 82.188ZM81.5734 84.316L82.4474 84.658V85H79.4074V84.658L80.2054 84.316L78.2674 78.502H64.9294L62.8014 84.316L63.9034 84.658V85H61.1294V84.658L62.3074 84.316L71.8454 58.4H72.9094L81.5734 84.316ZM65.0434 78.198H78.1534L71.8834 59.54L65.0434 78.198ZM94.0439 58.4C97.2612 58.4 99.8326 59.6667 101.758 62.2C103.709 64.7333 104.684 67.8873 104.684 71.662C104.684 75.4367 103.709 78.6033 101.758 81.162C99.8326 83.6953 97.2612 84.9747 94.0439 85H84.7339V84.658L85.6079 84.316V59.046L84.7339 58.742V58.4H94.0439ZM94.0439 84.696C96.8812 84.696 99.1359 83.4547 100.808 80.972C102.505 78.4893 103.354 75.386 103.354 71.662C103.354 67.9633 102.505 64.8853 100.808 62.428C99.1359 59.9453 96.8812 58.704 94.0439 58.704L86.9379 59.008V84.354L94.0439 84.696ZM111.265 58.742L110.391 59.046V84.316L111.265 84.658V85H108.187V84.658L109.061 84.316V59.046L108.187 58.742V58.4H111.265V58.742ZM123.676 70.18C125.398 70.9653 126.792 71.7127 127.856 72.422C128.92 73.1313 129.692 73.8407 130.174 74.55C130.68 75.2593 130.997 75.8927 131.124 76.45C131.276 76.982 131.352 77.6407 131.352 78.426C131.352 80.326 130.63 81.9347 129.186 83.252C127.742 84.544 125.69 85.2027 123.03 85.228C121.383 85.228 119.939 85.076 118.698 84.772C117.482 84.468 116.671 84.164 116.266 83.86L115.696 83.404L115.126 84.392H114.746L114.784 80.402H115.24C115.265 80.5287 115.303 80.6933 115.354 80.896C115.43 81.0987 115.645 81.466 116 81.998C116.354 82.5047 116.785 82.9607 117.292 83.366C117.798 83.7713 118.558 84.1387 119.572 84.468C120.585 84.7973 121.738 84.962 123.03 84.962C125.31 84.962 127.21 84.3793 128.73 83.214C130.275 82.0487 131.035 80.4527 131.01 78.426C130.934 76.1967 128.438 73.98 123.524 71.776C120.154 70.256 117.849 68.9767 116.608 67.938C115.366 66.8993 114.746 65.5187 114.746 63.796C114.72 61.9467 115.417 60.566 116.836 59.654C118.28 58.7167 120.116 58.248 122.346 58.248C123.536 58.248 124.676 58.4127 125.766 58.742C126.88 59.046 127.691 59.3627 128.198 59.692L128.996 60.148L129.566 59.198H129.946V63.112H129.49C129.464 62.9853 129.426 62.8207 129.376 62.618C129.325 62.4153 129.148 62.048 128.844 61.516C128.54 60.984 128.147 60.5153 127.666 60.11C127.21 59.6793 126.513 59.2993 125.576 58.97C124.638 58.6407 123.562 58.476 122.346 58.476C120.243 58.476 118.495 58.932 117.102 59.844C115.734 60.756 115.05 62.0733 115.05 63.796C115.05 64.8093 115.582 65.7087 116.646 66.494C117.735 67.2793 120.078 68.508 123.676 70.18ZM148.439 82.188L148.705 82.34L147.983 85H134.683V84.658L135.557 84.316V59.046L134.683 58.742V58.4H137.799V58.742L136.887 59.046V84.43C139.42 84.6327 141.232 84.7213 142.321 84.696C144.576 84.62 146.02 84.468 146.653 84.24C147.286 83.9867 147.882 83.3027 148.439 82.188ZM169.634 84.316L170.508 84.658V85H167.468V84.658L168.266 84.316L166.328 78.502H152.99L150.862 84.316L151.964 84.658V85H149.19V84.658L150.368 84.316L159.906 58.4H160.97L169.634 84.316ZM153.104 78.198H166.214L159.944 59.54L153.104 78.198ZM185.943 58.438H188.717V58.78L187.539 59.084H187.501L178.761 85.038H177.963L168.881 59.084H168.843L167.969 58.78V58.438H171.123V58.78L170.325 59.084H170.287L178.799 83.48L187.045 59.084L185.943 58.78V58.438ZM100.777 125.718C100.777 124.527 101.055 123.476 101.613 122.564C102.17 121.652 102.892 120.829 103.779 120.094C104.665 119.334 105.603 118.625 106.591 117.966C107.579 117.282 108.516 116.585 109.403 115.876C110.289 115.167 111.011 114.407 111.569 113.596C112.126 112.76 112.405 111.823 112.405 110.784C112.405 109.619 112.088 108.732 111.455 108.124C110.847 107.491 110.023 107.174 108.985 107.174C107.971 107.174 107.173 107.491 106.591 108.124C106.008 108.732 105.717 109.707 105.717 111.05C105.717 112.367 105.983 113.697 106.515 115.04C107.072 116.357 107.832 117.675 108.795 118.992C109.757 120.284 110.872 121.551 112.139 122.792C113.405 124.008 114.748 125.148 116.167 126.212C117.737 127.377 119.257 128.34 120.727 129.1C122.221 129.86 123.501 130.341 124.565 130.544C124.691 130.569 124.742 130.658 124.717 130.81C124.691 130.937 124.641 131 124.565 131C124.058 131 123.475 131 122.817 131C122.183 131 121.575 131 120.993 131C120.663 131 120.22 130.899 119.663 130.696C119.105 130.493 118.409 130.139 117.573 129.632C116.737 129.1 115.723 128.34 114.533 127.352C113.241 126.313 111.974 125.186 110.733 123.97C109.517 122.754 108.402 121.5 107.389 120.208C106.401 118.891 105.59 117.611 104.957 116.37C104.627 115.585 104.361 114.85 104.159 114.166C103.981 113.482 103.893 112.836 103.893 112.228C103.893 111.189 104.146 110.239 104.653 109.378C105.159 108.491 105.869 107.782 106.781 107.25C107.693 106.718 108.744 106.452 109.935 106.452C110.517 106.452 111.138 106.553 111.797 106.756C112.481 106.933 113.051 107.301 113.507 107.858C113.988 108.39 114.229 109.175 114.229 110.214C114.229 111.303 113.95 112.253 113.393 113.064C112.861 113.875 112.151 114.622 111.265 115.306C110.403 115.965 109.491 116.611 108.529 117.244C107.566 117.852 106.641 118.511 105.755 119.22C104.893 119.904 104.184 120.689 103.627 121.576C103.095 122.437 102.829 123.451 102.829 124.616C102.829 125.705 103.095 126.706 103.627 127.618C104.184 128.505 104.931 129.214 105.869 129.746C106.806 130.253 107.857 130.506 109.023 130.506C110.264 130.506 111.417 130.227 112.481 129.67C113.545 129.087 114.469 128.327 115.255 127.39C116.04 126.427 116.648 125.363 117.079 124.198C117.509 123.007 117.725 121.791 117.725 120.55C117.725 119.891 117.585 119.334 117.307 118.878C117.028 118.422 116.293 118.194 115.103 118.194C115.027 118.194 114.976 118.118 114.951 117.966C114.951 117.814 115.001 117.738 115.103 117.738L122.779 117.7C122.88 117.7 122.931 117.776 122.931 117.928C122.931 118.08 122.88 118.156 122.779 118.156C121.867 118.156 121.183 118.245 120.727 118.422C120.296 118.574 119.992 118.802 119.815 119.106C119.637 119.41 119.485 119.79 119.359 120.246C119.105 121.133 118.776 122.083 118.371 123.096C117.965 124.109 117.459 125.11 116.851 126.098C116.243 127.086 115.508 127.985 114.647 128.796C113.785 129.607 112.772 130.253 111.607 130.734C110.441 131.215 109.111 131.456 107.617 131.456C106.046 131.456 104.754 131.19 103.741 130.658C102.727 130.101 101.98 129.379 101.499 128.492C101.017 127.605 100.777 126.681 100.777 125.718ZM60.0499 179.316L60.9239 179.658V180H57.8839V179.658L58.6819 179.316L56.7439 173.502H43.4059L41.2779 179.316L42.3799 179.658V180H39.6059V179.658L40.7839 179.316L50.3219 153.4H51.3859L60.0499 179.316ZM43.5199 173.198H56.6299L50.3599 154.54L43.5199 173.198ZM79.5505 153.4H82.1725V153.742L81.0705 154.046V180H80.3485L64.5405 155.338V179.316L65.6425 179.658V180H63.0205V179.658L64.1225 179.316V153.4H64.9965L80.6525 177.986V154.046L79.5505 153.742V153.4ZM96.0303 166.548H106.67V166.814L105.758 166.852V179.848C103.58 179.949 100.78 180 97.3603 180C94.067 179.975 91.255 178.657 88.9243 176.048C86.619 173.413 85.441 170.247 85.3903 166.548V166.396C85.441 162.672 86.6316 159.505 88.9623 156.896C91.293 154.261 94.0923 152.944 97.3603 152.944C98.8803 152.944 100.299 153.083 101.616 153.362C102.959 153.641 103.909 153.907 104.466 154.16L105.34 154.578L104.922 157.846H104.656C104.732 156.149 104.188 154.958 103.022 154.274C101.882 153.59 99.995 153.248 97.3603 153.248C94.447 153.248 91.9516 154.54 89.8743 157.124C87.797 159.708 86.7456 162.824 86.7203 166.472C86.7456 170.12 87.797 173.236 89.8743 175.82C91.9516 178.404 94.447 179.696 97.3603 179.696C99.9696 179.696 102.326 179.582 104.428 179.354V166.89L96.0303 167.194V166.548ZM125.393 177.188L125.697 177.34L124.937 180H110.117V179.658L110.991 179.316V154.046L110.117 153.742V153.4H124.215L124.975 156.06L124.709 156.174C124.455 155.693 124.291 155.376 124.215 155.224C124.139 155.047 123.987 154.831 123.759 154.578C123.531 154.325 123.341 154.173 123.189 154.122C123.062 154.071 122.783 154.008 122.353 153.932C121.922 153.831 121.504 153.78 121.099 153.78C120.719 153.755 120.111 153.729 119.275 153.704C117.831 153.628 115.513 153.729 112.321 154.008V166.548H121.099L121.479 165.142H121.821V168.22H121.479L121.137 166.852H112.321V179.316L112.549 179.392C115.513 179.645 117.755 179.747 119.275 179.696C121.555 179.62 123.011 179.468 123.645 179.24C124.278 178.987 124.861 178.303 125.393 177.188ZM142.205 177.188L142.471 177.34L141.749 180H128.449V179.658L129.323 179.316V154.046L128.449 153.742V153.4H131.565V153.742L130.653 154.046V179.43C133.186 179.633 134.997 179.721 136.087 179.696C138.341 179.62 139.785 179.468 140.419 179.24C141.052 178.987 141.647 178.303 142.205 177.188ZM147.744 153.742L146.87 154.046V179.316L147.744 179.658V180H144.666V179.658L145.54 179.316V154.046L144.666 153.742V153.4H147.744V153.742ZM167.982 153.4H170.604V153.742L169.502 154.046V180H168.78L152.972 155.338V179.316L154.074 179.658V180H151.452V179.658L152.554 179.316V153.4H153.428L169.084 177.986V154.046L167.982 153.742V153.4ZM193.05 179.316L193.924 179.658V180H190.884V179.658L191.682 179.316L189.744 173.502H176.406L174.278 179.316L175.38 179.658V180H172.606V179.658L173.784 179.316L183.322 153.4H184.386L193.05 179.316ZM176.52 173.198H189.63L183.36 154.54L176.52 173.198Z" fill="#FCF7F3"/>
</svg>
